<svg width="476" height="476" viewBox="0 0 476 476" fill="none" xmlns="http://www.w3.org/2000/svg">
<g clip-path="url(#clip0_661_35)">
<path d="M329.129 92.911C329.129 41.5857 287.877 0 237.02 0C186.163 0 144.913 41.5857 144.913 92.911C144.913 105.584 150.621 121.004 159.352 137.122C168.062 153.203 179.693 169.82 191.347 184.844C202.999 199.863 214.653 213.263 223.396 222.911C227.767 227.734 231.409 231.617 233.957 234.293C235.23 235.631 236.231 236.667 236.912 237.368C236.949 237.407 236.985 237.444 237.02 237.48C237.055 237.444 237.092 237.407 237.129 237.368C237.81 236.667 238.81 235.631 240.084 234.293C242.632 231.617 246.275 227.734 250.644 222.911C259.387 213.263 271.041 199.863 282.693 184.844C294.347 169.82 305.978 153.203 314.689 137.122C323.42 121.004 329.129 105.584 329.129 92.911Z" stroke="#CED1E0"/>
<path d="M289.572 402.057C276.352 451.346 225.634 480.596 176.293 467.391C126.952 454.183 97.6705 403.521 110.891 354.233C114.156 342.062 123.662 328.733 136.284 315.517C148.875 302.333 164.437 289.389 179.612 277.983C194.782 266.58 209.538 256.732 220.504 249.735C225.986 246.238 230.519 243.452 233.68 241.543C235.26 240.588 236.498 239.852 237.339 239.356C237.389 239.327 237.436 239.298 237.483 239.271C237.51 239.318 237.537 239.366 237.565 239.416C238.045 240.267 238.749 241.522 239.639 243.138C241.421 246.369 243.953 251.045 246.949 256.814C252.944 268.351 260.793 284.249 268.225 301.701C275.657 319.158 282.656 338.14 286.96 355.849C291.274 373.597 292.837 389.889 289.572 402.057Z" stroke="#CED1E0"/>
<path d="M364.993 121.406C378.216 72.1177 348.934 21.4552 299.592 8.2483C250.251 -4.95853 199.535 24.2915 186.314 73.58C183.05 85.7495 184.611 102.04 188.926 119.79C193.231 137.499 200.229 156.48 207.662 173.937C215.092 191.389 222.943 207.287 228.937 218.825C231.934 224.592 234.465 229.268 236.247 232.5C237.138 234.116 237.841 235.372 238.321 236.222C238.349 236.272 238.376 236.32 238.403 236.367C238.45 236.34 238.498 236.311 238.547 236.282C239.388 235.786 240.626 235.05 242.206 234.095C245.368 232.186 249.899 229.401 255.383 225.903C266.347 218.905 281.104 209.058 296.275 197.655C311.448 186.249 327.01 173.306 339.603 160.121C352.225 146.904 361.731 133.575 364.993 121.406Z" stroke="#CED1E0"/>
<path d="M245.257 409.809C219.717 453.999 163.15 469.141 118.912 443.628C74.6736 418.115 59.5164 361.607 85.0575 317.416C91.3634 306.506 103.999 296.09 119.615 286.586C135.194 277.105 153.579 268.628 171.192 261.532C188.8 254.44 205.605 248.745 218.01 244.821C224.212 242.858 229.311 241.341 232.859 240.313C234.633 239.8 236.019 239.409 236.96 239.147C237.016 239.131 237.069 239.116 237.122 239.102C237.135 239.154 237.149 239.208 237.163 239.264C237.407 240.209 237.761 241.604 238.202 243.395C239.086 246.977 240.32 252.148 241.72 258.496C244.52 271.188 247.984 288.574 250.638 307.352C253.295 326.137 255.139 346.28 254.708 364.499C254.276 382.761 251.564 398.898 245.257 409.809Z" stroke="#CED1E0"/>
<path d="M390.827 158.221C416.367 114.03 401.212 57.5234 356.974 32.01C312.736 6.49631 256.167 21.6372 230.626 65.8282C224.32 76.739 221.607 92.8784 221.177 111.139C220.747 129.357 222.589 149.501 225.245 168.285C227.9 187.064 231.364 204.45 234.165 217.143C235.565 223.489 236.799 228.66 237.682 232.243C238.124 234.034 238.478 235.429 238.721 236.374C238.735 236.43 238.749 236.483 238.763 236.536C238.815 236.521 238.869 236.506 238.924 236.491C239.865 236.229 241.251 235.838 243.025 235.324C246.574 234.297 251.672 232.779 257.874 230.818C270.281 226.894 287.085 221.197 304.692 214.105C322.305 207.011 340.691 198.532 356.268 189.051C371.885 179.548 384.52 169.132 390.827 158.221Z" stroke="#CED1E0"/>
<path d="M200.447 405.84C164.326 441.923 105.763 441.923 69.643 405.84C33.5227 369.759 33.5227 311.26 69.643 275.177C78.5611 266.268 93.4653 259.475 111.011 254.333C128.516 249.201 148.471 245.766 167.322 243.467C186.168 241.169 203.876 240.011 216.875 239.428C223.374 239.137 228.693 238.989 232.386 238.914C234.232 238.877 235.672 238.857 236.65 238.848C236.707 238.847 236.762 238.847 236.817 238.846C236.816 238.9 236.816 238.956 236.815 239.013C236.805 239.989 236.786 241.428 236.749 243.272C236.674 246.961 236.526 252.274 236.234 258.768C235.65 271.751 234.491 289.441 232.191 308.266C229.889 327.098 226.45 347.031 221.314 364.517C216.166 382.043 209.365 396.933 200.447 405.84Z" stroke="#CED1E0"/>
<path d="M406.241 200.46C442.362 164.379 442.362 105.879 406.241 69.7972C370.122 33.7154 311.557 33.7154 275.438 69.7972C266.519 78.7059 259.717 93.5941 254.569 111.121C249.434 128.607 245.994 148.54 243.693 167.372C241.393 186.197 240.234 203.886 239.65 216.871C239.358 223.363 239.21 228.677 239.136 232.366C239.098 234.21 239.079 235.649 239.069 236.625C239.068 236.682 239.068 236.738 239.067 236.792C239.121 236.791 239.177 236.791 239.234 236.79C240.212 236.78 241.652 236.761 243.498 236.724C247.192 236.649 252.51 236.501 259.009 236.21C272.008 235.627 289.718 234.469 308.563 232.171C327.413 229.872 347.367 226.436 364.872 221.306C382.419 216.164 397.322 209.369 406.241 200.46Z" stroke="#CED1E0"/>
<path d="M158.191 390.42C113.953 415.936 57.3856 400.794 31.8445 356.603C6.30359 312.413 21.4607 255.904 65.699 230.392C76.6215 224.092 92.7782 221.383 111.059 220.952C129.296 220.523 149.461 222.363 168.266 225.016C187.065 227.669 204.469 231.129 217.177 233.926C223.529 235.325 228.705 236.558 232.292 237.44C234.086 237.881 235.481 238.235 236.428 238.478C236.483 238.492 236.537 238.506 236.59 238.52C236.575 238.572 236.56 238.626 236.545 238.681C236.282 239.621 235.891 241.006 235.377 242.777C234.349 246.322 232.829 251.417 230.866 257.61C226.937 270.003 221.235 286.79 214.135 304.378C207.033 321.972 198.546 340.338 189.054 355.901C179.541 371.499 169.114 384.123 158.191 390.42Z" stroke="#CED1E0"/>
<path d="M410.186 245.245C454.424 219.733 469.582 163.226 444.041 119.035C418.499 74.8443 361.933 59.7033 317.695 85.217C306.772 91.5162 296.345 104.139 286.831 119.738C277.34 135.3 268.851 153.665 261.75 171.26C254.651 188.848 248.947 205.635 245.021 218.027C243.056 224.222 241.537 229.316 240.509 232.86C239.994 234.633 239.603 236.017 239.341 236.957C239.325 237.013 239.31 237.066 239.296 237.118C239.348 237.132 239.402 237.145 239.458 237.16C240.404 237.403 241.8 237.757 243.593 238.198C247.18 239.081 252.356 240.313 258.708 241.712C271.416 244.509 288.821 247.97 307.619 250.621C326.425 253.275 346.589 255.116 364.828 254.687C383.106 254.254 399.263 251.546 410.186 245.245Z" stroke="#CED1E0"/>
<path d="M121.372 364.601C72.0302 377.809 21.3134 348.558 8.09252 299.27C-5.12848 249.981 24.153 199.319 73.4944 186.113C85.6767 182.852 101.985 184.412 119.754 188.722C137.481 193.023 156.483 200.013 173.959 207.438C191.43 214.86 207.345 222.703 218.894 228.69C224.668 231.683 229.349 234.212 232.585 235.992C234.203 236.882 235.459 237.585 236.311 238.064C236.36 238.092 236.409 238.12 236.456 238.146C236.429 238.193 236.4 238.241 236.371 238.29C235.874 239.131 235.137 240.367 234.182 241.945C232.27 245.104 229.482 249.63 225.981 255.108C218.976 266.061 209.118 280.801 197.703 295.956C186.284 311.113 173.328 326.658 160.128 339.238C146.897 351.846 133.554 361.342 121.372 364.601Z" stroke="#CED1E0"/>
<path d="M402.391 289.525C451.733 276.319 481.015 225.656 467.795 176.368C454.573 127.079 403.857 97.8293 354.516 111.036C342.332 114.297 328.989 123.793 315.759 136.401C302.56 148.979 289.602 164.524 278.184 179.683C266.769 194.837 256.911 209.578 249.906 220.532C246.405 226.008 243.617 230.536 241.705 233.693C240.749 235.272 240.013 236.508 239.516 237.348C239.487 237.398 239.458 237.446 239.431 237.492C239.478 237.519 239.526 237.546 239.576 237.574C240.427 238.054 241.684 238.756 243.302 239.646C246.536 241.426 251.218 243.955 256.992 246.948C268.541 252.937 284.457 260.777 301.928 268.201C319.404 275.625 338.406 282.617 356.134 286.916C373.901 291.225 390.21 292.787 402.391 289.525Z" stroke="#CED1E0"/>
<path d="M92.4921 330.143C41.4102 330.143 0 288.779 0 237.75C0 186.723 41.4102 145.357 92.4921 145.357C105.104 145.357 120.453 151.081 136.499 159.838C152.509 168.575 169.051 180.241 184.008 191.931C198.961 203.617 212.302 215.307 221.906 224.076C226.708 228.46 230.574 232.113 233.238 234.669C234.57 235.947 235.602 236.95 236.3 237.633C236.341 237.674 236.381 237.713 236.419 237.75C236.381 237.788 236.341 237.827 236.3 237.867C235.602 238.551 234.57 239.554 233.238 240.832C230.574 243.388 226.708 247.04 221.906 251.425C212.302 260.196 198.961 271.884 184.008 283.571C169.051 295.259 152.509 306.925 136.499 315.664C120.453 324.421 105.104 330.143 92.4921 330.143Z" stroke="#F33A3A"/>
<path d="M383.395 330.281C434.475 330.281 475.886 288.915 475.886 237.888C475.886 186.861 434.475 145.495 383.395 145.495C370.781 145.495 355.434 151.218 339.388 159.975C323.378 168.712 306.835 180.378 291.877 192.068C276.926 203.754 263.586 215.444 253.98 224.213C249.178 228.598 245.312 232.251 242.648 234.806C241.316 236.084 240.284 237.088 239.586 237.771C239.545 237.811 239.506 237.85 239.467 237.888C239.506 237.926 239.545 237.964 239.586 238.005C240.284 238.688 241.316 239.692 242.648 240.969C245.312 243.525 249.178 247.179 253.98 251.561C263.586 260.332 276.926 272.021 291.877 283.707C306.835 295.398 323.378 307.064 339.388 315.8C355.434 324.557 370.781 330.281 383.395 330.281Z" stroke="#F33A3A"/>
</g>
<defs>
<clipPath id="clip0_661_35">
<rect width="476" height="476" fill="white"/>
</clipPath>
</defs>
</svg>
