<svg width="439" height="238" viewBox="0 0 439 238" fill="none" xmlns="http://www.w3.org/2000/svg">
<g clip-path="url(#clip0_159_347)">
<path d="M279.495 432.321C279.495 539.998 259.28 637.38 226.678 707.764C193.997 778.325 149.274 821.007 100.598 821.007C51.92 821.007 7.19338 778.325 -25.4864 707.764C-58.0858 637.38 -78.3047 539.998 -78.3047 432.321C-78.3047 324.643 -58.0858 227.261 -25.4864 156.877C7.19338 86.3177 51.92 43.6334 100.598 43.6334C149.274 43.6334 193.997 86.3177 226.678 156.877C259.28 227.261 279.495 324.643 279.495 432.321Z" stroke="white"/>
<path d="M255.541 525.136C203.65 618.379 139.214 692.222 77.0659 736.26C14.7744 780.403 -44.5406 794.187 -86.7226 768.919C-128.904 743.651 -147.058 683.466 -141.356 605.43C-135.667 527.57 -106.248 432.754 -54.3575 339.508C-2.46642 246.262 61.9711 172.421 124.117 128.381C186.411 84.2385 245.724 70.4571 287.908 95.7235C330.087 120.99 348.24 181.174 342.54 259.213C336.852 337.071 307.432 431.889 255.541 525.136Z" stroke="white"/>
<path d="M227.122 563.592C153.742 639.722 73.0855 693.741 2.07652 719.588C-69.0875 745.494 -129.833 742.896 -164.296 707.139C-198.759 671.386 -201.266 608.364 -176.297 534.529C-151.381 460.859 -99.3149 377.181 -25.9348 301.05C47.4453 224.92 128.103 170.902 199.111 145.053C270.274 119.147 331.021 121.749 365.484 157.503C399.946 193.258 402.453 256.28 377.484 330.111C352.57 403.782 300.503 487.461 227.122 563.592Z" stroke="white"/>
<path d="M190.069 593.111C100.203 646.937 8.82552 677.456 -66.2056 683.357C-141.389 689.271 -199.432 670.455 -223.816 626.635C-248.2 582.819 -234.884 521.262 -192.357 456.666C-149.916 392.203 -78.7536 325.36 11.112 271.532C100.979 217.703 192.354 187.186 267.386 181.286C342.569 175.373 400.612 194.188 424.994 238.005C449.38 281.823 436.064 343.381 393.537 407.975C351.094 472.439 279.935 539.281 190.069 593.111Z" stroke="white"/>
<path d="M146.914 611.671C46.6855 639.533 -49.1853 644.473 -123.127 630.026C-197.21 615.554 -248.595 581.795 -261.223 532.905C-273.851 484.011 -245.618 428.12 -188.436 377.155C-131.363 326.287 -45.9558 280.834 54.2712 252.971C154.497 225.109 250.369 220.169 324.311 234.616C398.395 249.09 449.779 282.846 462.408 331.74C475.033 380.633 446.803 436.523 389.618 487.486C332.547 538.357 247.141 583.81 146.914 611.671Z" stroke="white"/>
<path d="M273.405 480.359C246.542 584.368 202.719 673.002 153.671 732.23C104.509 791.605 50.6542 820.831 3.62857 807.761C-43.3971 794.686 -75.9499 741.443 -89.9134 664.515C-103.843 587.781 -99.0789 488.288 -72.2169 384.281C-45.3549 280.273 -1.53201 191.64 47.5139 132.409C96.6793 73.0342 150.531 43.8088 197.556 56.8817C244.584 69.9546 277.135 123.199 291.097 200.124C305.03 276.862 300.264 376.353 273.405 480.359Z" stroke="white"/>
</g>
<defs>
<clipPath id="clip0_159_347">
<rect width="439" height="238" rx="30" fill="white"/>
</clipPath>
</defs>
</svg>
