<svg width="40" height="41" viewBox="0 0 40 41" fill="none" xmlns="http://www.w3.org/2000/svg">
<g clip-path="url(#clip0_17_198)">
<path d="M40 32.1667V8C40 5.70333 38.1317 3.83333 35.8333 3.83333H4.16667C1.87 3.83333 0 5.70333 0 8V32.1667H19.1667V35.5H11.6667V37.1667H28.3333V35.5H20.8333V32.1667H40ZM1.66667 8C1.66667 6.62167 2.78833 5.5 4.16667 5.5H35.8333C37.2117 5.5 38.3333 6.62167 38.3333 8V30.5H1.66667V8Z" fill="white"/>
<path d="M15.2328 23.2959V15.2164H12.1193V13.9359H19.7048V15.2164H16.5913V23.2959H15.2328ZM22.942 23.2959L19.9 13.9359H21.3105L23.904 21.9244L26.53 13.9359H27.9405L24.8985 23.2959H22.942Z" fill="white"/>
</g>
<defs>
<clipPath id="clip0_17_198">
<rect width="40" height="40" fill="white" transform="translate(0 0.5)"/>
</clipPath>
</defs>
</svg>
