<svg width="40" height="41" viewBox="0 0 40 41" fill="none" xmlns="http://www.w3.org/2000/svg">
<g clip-path="url(#clip0_17_251)">
<path d="M27.5 12.1667H12.5C9.28333 12.1667 6.66667 14.7833 6.66667 18V35.5H12.51L9.44833 40.5H11.4017L14.4633 35.5H25.535L28.5967 40.5H30.55L27.4883 35.5H33.3317V18C33.3317 14.7833 30.7167 12.1667 27.5 12.1667ZM8.33333 18C8.33333 15.7017 10.2033 13.8333 12.5 13.8333H19.1667V23.8333H8.33333V18ZM31.6667 33.8333H8.33333V25.5H13.3333V28C13.3333 28.46 13.7067 28.8333 14.1667 28.8333C14.6267 28.8333 15 28.46 15 28V25.5H25V28C25 28.46 25.3733 28.8333 25.8333 28.8333C26.2933 28.8333 26.6667 28.46 26.6667 28V25.5H31.6667V33.8333ZM31.6667 23.8333H20.8333V13.8333H27.5C29.7967 13.8333 31.6667 15.7017 31.6667 18V23.8333ZM40 20.5V40.5H38.3333V20.5C38.3333 10.3917 30.1083 2.16667 20 2.16667C9.89167 2.16667 1.66667 10.3917 1.66667 20.5V40.5H0V20.5C0 9.47167 8.97167 0.5 20 0.5C31.0283 0.5 40 9.47167 40 20.5Z" fill="#FF2F22"/>
</g>
<defs>
<clipPath id="clip0_17_251">
<rect width="40" height="40" fill="white" transform="translate(0 0.5)"/>
</clipPath>
</defs>
</svg>
