<svg width="40" height="35" viewBox="0 0 40 35" fill="none" xmlns="http://www.w3.org/2000/svg">
<path d="M40 23V5C40 2.70334 38.1317 0.833336 35.8333 0.833336H4.16667C1.87 0.833336 0 2.70334 0 5V23H19.1667V32.5L9 34.1667H31.613L20.8333 32.5V23H40ZM1.66667 5C1.66667 3.62167 2.78833 2.5 4.16667 2.5C5.545 2.5 35.8333 2.5 35.8333 2.5C36.473 2.5 37.0574 2.74157 37.5 3.13826C38.0112 3.59636 38.3333 4.26132 38.3333 5V21.5H1.66667V5Z" fill="#FF2F22"/>
<path d="M10.2492 12.8119V11.5834H15.7092V12.8119H10.2492ZM17.2697 12.8119V11.5834H22.7297V12.8119H17.2697ZM24.2903 12.8119V11.5834H29.7503V12.8119H24.2903Z" fill="#FF2F22"/>
</svg>
