<svg width="50" height="18" viewBox="0 0 50 18" fill="none" xmlns="http://www.w3.org/2000/svg">
<path d="M9.85546 17.5659C8.92546 17.5659 8.08546 17.4069 7.33546 17.0889C6.59146 16.7649 5.97646 16.3059 5.49046 15.7119C5.01046 15.1119 4.69846 14.4009 4.55446 13.5789L6.51646 13.2819C6.71446 14.0739 7.12846 14.6919 7.75846 15.1359C8.38846 15.5739 9.12346 15.7929 9.96346 15.7929C10.4855 15.7929 10.9655 15.7119 11.4035 15.5499C11.8415 15.3819 12.1925 15.1449 12.4565 14.8389C12.7265 14.5269 12.8615 14.1549 12.8615 13.7229C12.8615 13.4889 12.8195 13.2819 12.7355 13.1019C12.6575 12.9219 12.5465 12.7659 12.4025 12.6339C12.2645 12.4959 12.0935 12.3789 11.8895 12.2829C11.6915 12.1809 11.4725 12.0939 11.2325 12.0219L7.91146 11.0409C7.58746 10.9449 7.25746 10.8219 6.92146 10.6719C6.58546 10.5159 6.27646 10.3149 5.99446 10.0689C5.71846 9.81693 5.49346 9.50793 5.31946 9.14193C5.14546 8.76993 5.05846 8.31993 5.05846 7.79193C5.05846 6.99393 5.26246 6.31893 5.67046 5.76693C6.08446 5.20893 6.64246 4.78893 7.34446 4.50693C8.04646 4.21893 8.83246 4.07493 9.70246 4.07493C10.5785 4.08693 11.3615 4.24293 12.0515 4.54293C12.7475 4.84293 13.3235 5.27493 13.7795 5.83893C14.2415 6.39693 14.5595 7.07493 14.7335 7.87293L12.7175 8.21493C12.6275 7.72893 12.4355 7.31193 12.1415 6.96393C11.8475 6.60993 11.4875 6.33993 11.0615 6.15393C10.6355 5.96193 10.1735 5.86293 9.67546 5.85693C9.19546 5.84493 8.75446 5.91693 8.35246 6.07293C7.95646 6.22893 7.63846 6.44793 7.39846 6.72993C7.16446 7.01193 7.04746 7.33593 7.04746 7.70193C7.04746 8.06193 7.15246 8.35293 7.36246 8.57493C7.57246 8.79693 7.83046 8.97393 8.13646 9.10593C8.44846 9.23193 8.75746 9.33693 9.06346 9.42093L11.4575 10.0959C11.7575 10.1799 12.0965 10.2939 12.4745 10.4379C12.8585 10.5759 13.2275 10.7709 13.5815 11.0229C13.9415 11.2749 14.2385 11.6109 14.4725 12.0309C14.7065 12.4449 14.8235 12.9669 14.8235 13.5969C14.8235 14.2509 14.6915 14.8269 14.4275 15.3249C14.1635 15.8169 13.8005 16.2309 13.3385 16.5669C12.8825 16.8969 12.3545 17.1459 11.7545 17.3139C11.1545 17.4819 10.5215 17.5659 9.85546 17.5659ZM16.7414 17.2959V4.33593H18.4424L23.1404 14.0829L27.8114 4.33593H29.5304V17.2869H27.7484V8.42193L23.5634 17.2959H22.7084L18.5144 8.42193V17.2959H16.7414ZM32.052 17.2959V4.33593H33.753L38.451 14.0829L43.122 4.33593H44.841V17.2869H43.059V8.42193L38.874 17.2959H38.019L33.825 8.42193V17.2959H32.052Z" fill="#FF2F22"/>
</svg>
