<svg width="40" height="41" viewBox="0 0 40 41" fill="none" xmlns="http://www.w3.org/2000/svg">
<path d="M18.2783 40.5H12.365L17.43 25.5H10.0633L8.01 28.6317C7.23501 29.8033 5.93667 30.5 4.535 30.5H0.170004L3.49834 20.5L0.145004 10.5H4.51334C5.915 10.5 7.21334 11.1967 7.98667 12.3667L10.0617 15.5H17.43L12.365 0.5H18.2783C19.8033 0.5 21.205 1.33333 21.935 2.67167L29.08 15.5H34.7767C37.3283 15.5 39.545 17.2917 39.9317 19.6667C40.1717 21.135 39.7617 22.6183 38.81 23.7383C37.8583 24.8583 36.47 25.5 35 25.5H29.08L21.9317 38.335C21.2033 39.6683 19.8033 40.5 18.2783 40.5ZM14.6867 38.8333H18.2783C19.1933 38.8333 20.035 38.3333 20.4733 37.53L28.1 23.8333H35C35.98 23.8333 36.9067 23.405 37.54 22.6583C38.185 21.9 38.45 20.9333 38.2867 19.9333C38.03 18.3567 36.52 17.1667 34.7767 17.1667H28.1L20.4767 3.47667C20.0333 2.66667 19.1917 2.16667 18.2783 2.16667H14.6867L19.7517 17.1667H9.16667L6.59667 13.285C6.13334 12.585 5.355 12.1667 4.51334 12.1667H2.46334L5.25667 20.5L2.48167 28.8333H4.535C5.375 28.8333 6.155 28.415 6.61834 27.715L9.165 23.8333H19.7517L14.6867 38.8333Z" fill="#FF2F22"/>
</svg>
