<svg width="40" height="40" viewBox="0 0 40 40" fill="none" xmlns="http://www.w3.org/2000/svg">
<path d="M34.5481 5.45333L25.4594 0H14.5406L5.45356 5.45333L0 14.5417V25.46L5.45356 34.5467L14.5406 40H25.4594L34.5464 34.5467L40 25.46V14.5417L34.5464 5.455L34.5481 5.45333ZM38.1499 14.6933L30.2379 24.1867L20.8342 19.485V10.1967L33.5447 7.02L38.1499 14.6933ZM24.6527 38.3333H15.3506L10.5904 25.6383L20.0008 20.9317L29.4129 25.6383L24.6527 38.3333ZM15.004 1.66667H24.9977L31.7863 5.74L20.0008 8.68667L8.21534 5.74L15.004 1.66667ZM6.45694 7.02L19.1675 10.1967V19.485L9.76374 24.1867L1.85174 14.6933L6.45694 7.02ZM1.66674 24.9967V17.0733L8.81703 25.6533L13.1555 37.2233L6.66861 33.3317L1.66674 24.9967ZM33.3331 33.3317L26.8461 37.2233L31.1846 25.6533L38.3349 17.0733V24.9967L33.3331 33.3317Z" fill="#FF2F22"/>
</svg>
