<svg width="40" height="41" viewBox="0 0 40 41" fill="none" xmlns="http://www.w3.org/2000/svg">
<g clip-path="url(#clip0_17_316)">
<path d="M35.8333 10.5H9.22333L35.255 2.12668L34.7433 0.540009L3.69 10.5283C1.615 10.765 0 12.53 0 14.6667V40.5H40V14.6667C40 12.37 38.1317 10.5 35.8333 10.5ZM4.16667 12.1667H35.8333C37.2133 12.1667 38.3333 13.2867 38.3333 14.6667V17.1667H1.66667V14.6667C1.66667 13.2867 2.78667 12.1667 4.16667 12.1667ZM1.66667 38.8333V18.8333H38.3333V38.8333H1.66667ZM5 22.1667H18.3333V23.8333H5V22.1667ZM5 33.8333H18.3333V35.5H5V33.8333ZM5 28H18.3333V29.6667H5V28ZM28.3333 22.1667C24.6567 22.1667 21.6667 25.1567 21.6667 28.8333C21.6667 32.51 24.6567 35.5 28.3333 35.5C32.01 35.5 35 32.51 35 28.8333C35 25.1567 32.01 22.1667 28.3333 22.1667ZM28.3333 33.8333C25.5767 33.8333 23.3333 31.59 23.3333 28.8333C23.3333 26.0767 25.5767 23.8333 28.3333 23.8333C31.09 23.8333 33.3333 26.0767 33.3333 28.8333C33.3333 31.59 31.09 33.8333 28.3333 33.8333Z" fill="#FF2F22"/>
</g>
<defs>
<clipPath id="clip0_17_316">
<rect width="40" height="40" fill="white" transform="translate(0 0.5)"/>
</clipPath>
</defs>
</svg>
