<svg width="40" height="41" viewBox="0 0 40 41" fill="none" xmlns="http://www.w3.org/2000/svg">
<g clip-path="url(#clip0_159_51)">
<path d="M40 35.5V15.5C40 12.7433 37.7567 10.5 35 10.5H20C17.2433 10.5 15 12.7433 15 15.5V35.5H18.3333V38.8333H15V40.5H40V38.8333H35.8333V35.5H40ZM28.3333 23.8333V17.1667H38.3333V23.8333H28.3333ZM16.6667 23.8333V17.1667H26.6667V23.8333H16.6667ZM20 12.1667H35C36.8383 12.1667 38.3333 13.6617 38.3333 15.5H16.6667C16.6667 13.6617 18.1617 12.1667 20 12.1667ZM16.6667 25.5H20V28.8333H21.6667V25.5H33.3333V28.8333H35V25.5H38.3333V33.8333H16.6667V25.5ZM34.1667 38.8333H20V35.5H34.1667V38.8333ZM1.66667 2.16667H8.33333V7.16667H21.6667V0.5H0V40.5H10V32.1667H11.6667V30.5H1.66667V2.16667ZM10 2.16667H20V5.5H10V2.16667ZM8.33333 32.1667V38.8333H1.66667V32.1667H8.33333Z" fill="#FF2F22"/>
</g>
<defs>
<clipPath id="clip0_159_51">
<rect width="40" height="40" fill="white" transform="translate(0 0.5)"/>
</clipPath>
</defs>
</svg>
