<svg width="40" height="41" viewBox="0 0 40 41" fill="none" xmlns="http://www.w3.org/2000/svg">
<g clip-path="url(#clip0_159_56)">
<path d="M36.6667 13.8333V6.81667C36.6667 5.08333 35.6233 3.55667 34.0083 2.93C31.1567 1.82167 26.41 0.5 20 0.5C13.59 0.5 8.84333 1.82167 5.99 2.93C4.37667 3.55667 3.33333 5.08333 3.33333 6.81667V13.8333H0V20.5C0 22.3383 1.495 23.8333 3.33333 23.8333V35.5H6.66667V40.5H13.3333V35.5H26.6667V40.5H33.3333V35.5H36.6667V23.8333C38.505 23.8333 40 22.3383 40 20.5V13.8333H36.6667ZM5 22.1667V10.5H35V22.1667H5ZM25 8.83333H15V7.16667H25V8.83333ZM6.595 4.48333C8.82167 3.61833 13.5233 2.16667 20 2.16667C26.4767 2.16667 31.18 3.61833 33.4067 4.48333C34.375 4.86 35 5.775 35 6.81667V8.83333H26.6667V5.5H13.3333V8.83333H5V6.81667C5 5.775 5.625 4.86 6.595 4.48333ZM1.66667 20.5V15.5H3.33333V22.1667C2.415 22.1667 1.66667 21.4183 1.66667 20.5ZM11.6667 38.8333H8.33333V35.5H11.6667V38.8333ZM31.6667 38.8333H28.3333V35.5H31.6667V38.8333ZM35 33.8333H5V23.8333H10V26.3333C10 26.7933 10.3733 27.1667 10.8333 27.1667C11.2933 27.1667 11.6667 26.7933 11.6667 26.3333V23.8333H28.3333V26.3333C28.3333 26.7933 28.7067 27.1667 29.1667 27.1667C29.6267 27.1667 30 26.7933 30 26.3333V23.8333H35V33.8333ZM38.3333 20.5C38.3333 21.4183 37.5867 22.1667 36.6667 22.1667V15.5H38.3333V20.5Z" fill="#FF2F22"/>
</g>
<defs>
<clipPath id="clip0_159_56">
<rect width="40" height="40" fill="white" transform="translate(0 0.5)"/>
</clipPath>
</defs>
</svg>
