<svg width="19" height="19" viewBox="0 0 19 19" fill="none" xmlns="http://www.w3.org/2000/svg">
<g clip-path="url(#clip0_10_112)">
<path d="M13.4583 -3.88431e-06C13.5625 -0.00060469 13.6658 0.0193634 13.7623 0.0587616C13.8587 0.0981578 13.9464 0.156208 14.0204 0.229582C14.0946 0.303177 14.1535 0.390736 14.1937 0.487207C14.2339 0.583679 14.2546 0.687155 14.2546 0.791664C14.2546 0.896173 14.2339 0.999649 14.1937 1.09612C14.1535 1.19259 14.0946 1.28015 14.0204 1.35375L7.5525 7.82166C7.10774 8.26698 6.85793 8.87062 6.85793 9.5C6.85793 10.1294 7.10774 10.733 7.5525 11.1783L14.0204 17.6462C14.1695 17.7953 14.2532 17.9975 14.2532 18.2083C14.2532 18.4192 14.1695 18.6213 14.0204 18.7704C13.8713 18.9195 13.6692 19.0032 13.4583 19.0032C13.2475 19.0032 13.0453 18.9195 12.8963 18.7704L6.42834 12.3025C6.05971 11.9348 5.76725 11.498 5.5677 11.0171C5.36814 10.5362 5.26543 10.0207 5.26543 9.5C5.26543 8.97934 5.36814 8.46379 5.5677 7.9829C5.76725 7.502 6.05971 7.06519 6.42834 6.6975L12.8963 0.229582C12.9702 0.156208 13.058 0.0981578 13.1544 0.0587615C13.2509 0.0193633 13.3541 -0.000604708 13.4583 -3.88431e-06Z" fill="#5A5A5A"/>
</g>
<defs>
<clipPath id="clip0_10_112">
<rect width="19" height="19" fill="white" transform="translate(19 19) rotate(-180)"/>
</clipPath>
</defs>
</svg>
