<svg width="9" height="19" viewBox="0 0 9 19" fill="none" xmlns="http://www.w3.org/2000/svg">
<path d="M0.796257 19.0032C0.692068 19.0038 0.588786 18.9839 0.492331 18.9445C0.395876 18.9051 0.308147 18.847 0.234174 18.7737C0.159972 18.7001 0.101077 18.6125 0.0608848 18.516C0.020693 18.4196 0 18.3161 0 18.2116C0 18.1071 0.020693 18.0036 0.0608848 17.9071C0.101077 17.8106 0.159972 17.7231 0.234174 17.6495L6.70209 11.1816C7.14685 10.7363 7.39667 10.1326 7.39667 9.50324C7.39667 8.87386 7.14685 8.27022 6.70209 7.82491L0.234174 1.35699C0.0850999 1.20792 0.00135106 1.00573 0.00135106 0.794906C0.00135106 0.584084 0.0850999 0.381896 0.234174 0.232823C0.383247 0.0837488 0.585435 0 0.796257 0C1.00708 0 1.20927 0.0837488 1.35834 0.232823L7.82626 6.70074C8.19488 7.06843 8.48735 7.50524 8.6869 7.98614C8.88645 8.46704 8.98917 8.98258 8.98917 9.50324C8.98917 10.0239 8.88645 10.5394 8.6869 11.0203C8.48735 11.5012 8.19488 11.938 7.82626 12.3057L1.35834 18.7737C1.28437 18.847 1.19664 18.9051 1.10018 18.9445C1.00373 18.9839 0.900446 19.0038 0.796257 19.0032Z" fill="#FF2F22"/>
</svg>
