<svg width="19" height="19" viewBox="0 0 19 19" fill="none" xmlns="http://www.w3.org/2000/svg">
<g clip-path="url(#clip0_10_110)">
<path d="M5.54166 19C5.43748 19.0006 5.33419 18.9806 5.23774 18.9412C5.14128 18.9018 5.05355 18.8438 4.97958 18.7704C4.90538 18.6968 4.84648 18.6093 4.80629 18.5128C4.7661 18.4163 4.74541 18.3128 4.74541 18.2083C4.74541 18.1038 4.7661 18.0004 4.80629 17.9039C4.84648 17.8074 4.90538 17.7199 4.97958 17.6463L11.4475 11.1783C11.8923 10.733 12.1421 10.1294 12.1421 9.5C12.1421 8.87063 11.8923 8.26698 11.4475 7.82167L4.97958 1.35375C4.83051 1.20468 4.74676 1.00249 4.74676 0.791671C4.74676 0.580849 4.83051 0.378661 4.97958 0.229588C5.12865 0.0805139 5.33084 -0.00323486 5.54166 -0.00323486C5.75249 -0.00323486 5.95467 0.0805139 6.10375 0.229588L12.5717 6.6975C12.9403 7.0652 13.2328 7.50201 13.4323 7.9829C13.6319 8.4638 13.7346 8.97935 13.7346 9.5C13.7346 10.0207 13.6319 10.5362 13.4323 11.0171C13.2328 11.498 12.9403 11.9348 12.5717 12.3025L6.10375 18.7704C6.02977 18.8438 5.94204 18.9018 5.84559 18.9412C5.74914 18.9806 5.64585 19.0006 5.54166 19Z" fill="#5A5A5A"/>
</g>
<defs>
<clipPath id="clip0_10_110">
<rect width="19" height="19" fill="white"/>
</clipPath>
</defs>
</svg>
