<svg width="4" height="8" viewBox="0 0 4 8" fill="none" xmlns="http://www.w3.org/2000/svg">
<path d="M3.05745 3.02829L0.9537 0.92454C0.867825 0.839175 0.751659 0.79126 0.630574 0.79126C0.509489 0.79126 0.393324 0.839175 0.307449 0.92454C0.26449 0.967148 0.230393 1.01784 0.207124 1.07369C0.183855 1.12954 0.171875 1.18945 0.171875 1.24996C0.171875 1.31046 0.183855 1.37037 0.207124 1.42622C0.230393 1.48207 0.26449 1.53277 0.307449 1.57537L2.41578 3.67454C2.45874 3.71715 2.49284 3.76784 2.51611 3.82369C2.53938 3.87954 2.55136 3.93945 2.55136 3.99996C2.55136 4.06046 2.53938 4.12037 2.51611 4.17622C2.49284 4.23207 2.45874 4.28277 2.41578 4.32537L0.307449 6.42454C0.221143 6.51024 0.172416 6.62671 0.171986 6.74834C0.171556 6.86996 0.21946 6.98678 0.305158 7.07308C0.390856 7.15939 0.507329 7.20812 0.628954 7.20855C0.750579 7.20898 0.867394 7.16107 0.9537 7.07537L3.05745 4.97162C3.31494 4.71381 3.45957 4.36433 3.45957 3.99996C3.45957 3.63558 3.31494 3.2861 3.05745 3.02829Z" fill="black"/>
</svg>
