<svg width="9" height="19" viewBox="0 0 9 19" fill="none" xmlns="http://www.w3.org/2000/svg">
<path d="M8.19288 -6.49195e-05C8.29707 -0.000665725 8.40035 0.0193023 8.49681 0.0587005C8.59326 0.0980968 8.68099 0.156147 8.75496 0.229521C8.82917 0.303116 8.88806 0.390675 8.92825 0.487146C8.96844 0.583618 8.98914 0.687094 8.98914 0.791603C8.98914 0.896112 8.96844 0.999588 8.92825 1.09606C8.88806 1.19253 8.82917 1.28009 8.75496 1.35369L2.28705 7.8216C1.84229 8.26692 1.59247 8.87056 1.59247 9.49993C1.59247 10.1293 1.84229 10.733 2.28705 11.1783L8.75496 17.6462C8.90404 17.7953 8.98778 17.9974 8.98778 18.2083C8.98778 18.4191 8.90404 18.6213 8.75496 18.7704C8.60589 18.9194 8.4037 19.0032 8.19288 19.0032C7.98206 19.0032 7.77987 18.9194 7.6308 18.7704L1.16288 12.3024C0.794253 11.9347 0.50179 11.4979 0.302238 11.017C0.102688 10.5361 -2.97323e-05 10.0206 -2.96868e-05 9.49993C-2.96413e-05 8.97928 0.102688 8.46373 0.302238 7.98284C0.50179 7.50194 0.794253 7.06513 1.16288 6.69743L7.6308 0.229521C7.70477 0.156147 7.7925 0.0980967 7.88895 0.0587005C7.98541 0.0193023 8.08869 -0.000665743 8.19288 -6.49195e-05Z" fill="#FF2F22"/>
</svg>
