<svg width="43" height="43" viewBox="0 0 43 43" fill="none" xmlns="http://www.w3.org/2000/svg">
<path d="M0 21.5C0 25.7523 1.26095 29.9091 3.6234 33.4448C5.98585 36.9804 9.3437 39.7361 13.2723 41.3634C17.2009 42.9907 21.5239 43.4165 25.6944 42.5869C29.865 41.7573 33.696 39.7096 36.7028 36.7028C39.7096 33.696 41.7573 29.865 42.5869 25.6944C43.4165 21.5239 42.9907 17.2009 41.3634 13.2723C39.7361 9.3437 36.9804 5.98585 33.4448 3.6234C29.9091 1.26095 25.7523 0 21.5 0C15.7997 0.00616527 10.3347 2.27332 6.30401 6.30401C2.27332 10.3347 0.00616527 15.7997 0 21.5ZM27.6168 18.9666C28.2885 19.6386 28.6659 20.5498 28.6659 21.5C28.6659 22.4502 28.2885 23.3614 27.6168 24.0334L19.2443 32.4059L16.7109 29.8725L25.0833 21.5L16.6428 13.0577L19.1708 10.5243L27.6168 18.9666Z" fill="white"/>
</svg>
