<svg width="43" height="43" viewBox="0 0 43 43" fill="none" xmlns="http://www.w3.org/2000/svg">
<path d="M0 21.5004C0 25.7527 1.26095 29.9095 3.6234 33.4451C5.98585 36.9808 9.3437 39.7365 13.2723 41.3638C17.2009 42.9911 21.5239 43.4168 25.6944 42.5873C29.865 41.7577 33.696 39.71 36.7028 36.7032C39.7096 33.6963 41.7573 29.8654 42.5869 25.6948C43.4165 21.5242 42.9907 17.2013 41.3634 13.2727C39.7361 9.34406 36.9804 5.98622 33.4448 3.62377C29.9091 1.26132 25.7523 0.000366211 21.5 0.000366211C15.7997 0.00653148 10.3347 2.27368 6.30401 6.30438C2.27332 10.3351 0.00616527 15.8001 0 21.5004ZM27.6168 18.967C28.2885 19.6389 28.6659 20.5502 28.6659 21.5004C28.6659 22.4505 28.2885 23.3618 27.6168 24.0338L19.2443 32.4062L16.7109 29.8728L25.0833 21.5004L16.6428 13.058L19.1708 10.5246L27.6168 18.967Z" fill="#FF2F22"/>
</svg>
