<svg width="36" height="36" viewBox="0 0 36 36" fill="none" xmlns="http://www.w3.org/2000/svg">
<g clip-path="url(#clip0_214_119)">
<path d="M0 6C0 5.175 0.675 4.5 1.5 4.5H27C27.825 4.5 28.5 5.175 28.5 6C28.5 6.825 27.825 7.5 27 7.5H1.5C0.675 7.5 0 6.825 0 6ZM27 28.5H1.5C0.675 28.5 0 29.175 0 30C0 30.825 0.675 31.5 1.5 31.5H27C27.825 31.5 28.5 30.825 28.5 30C28.5 29.175 27.825 28.5 27 28.5ZM34.5 16.5H9C8.175 16.5 7.5 17.175 7.5 18C7.5 18.825 8.175 19.5 9 19.5H34.5C35.325 19.5 36 18.825 36 18C36 17.175 35.325 16.5 34.5 16.5Z" fill="#FF2F22"/>
</g>
<defs>
<clipPath id="clip0_214_119">
<rect width="36" height="36" fill="white"/>
</clipPath>
</defs>
</svg>
