<svg width="12" height="15" viewBox="0 0 12 15" fill="none" xmlns="http://www.w3.org/2000/svg">
<path d="M5.85376 15H3.44938L4.69938 10H2.11626C1.86662 9.9999 1.62046 9.9414 1.39746 9.82919C1.17446 9.71698 0.980799 9.55417 0.83195 9.35376C0.6831 9.15335 0.58319 8.9209 0.540204 8.67499C0.497218 8.42908 0.512348 8.17652 0.584384 7.9375L2.98501 0H8.90188L7.02688 5H9.54126C9.82733 5.00018 10.108 5.07788 10.3535 5.22482C10.5989 5.37177 10.8 5.58248 10.9352 5.83456C11.0705 6.08663 11.1349 6.37064 11.1217 6.65641C11.1084 6.94218 11.018 7.21902 10.86 7.4575L5.85376 15Z" fill="white" fill-opacity="0.8"/>
</svg>
