<svg width="22" height="22" viewBox="0 0 22 22" fill="none" xmlns="http://www.w3.org/2000/svg">
<path d="M21.5608 19.8626L13.0718 11.3736L21.5608 2.88462C21.786 2.65947 21.9125 2.35411 21.9125 2.03572C21.9125 1.71732 21.786 1.41196 21.5608 1.18681C21.3357 0.961671 21.0303 0.835187 20.7119 0.835187C20.3935 0.835188 20.0882 0.961671 19.863 1.18681L11.374 9.67583L2.88501 1.18681C2.65987 0.961671 2.35451 0.835188 2.03611 0.835187C1.71771 0.835187 1.41235 0.961671 1.18721 1.18681C0.962067 1.41196 0.835583 1.71732 0.835583 2.03572C0.835583 2.35411 0.962067 2.65947 1.18721 2.88462L9.67622 11.3736L1.18721 19.8626C0.962068 20.0878 0.835582 20.3931 0.835583 20.7115C0.835582 21.0299 0.962068 21.3353 1.18721 21.5604C1.41235 21.7856 1.71771 21.9121 2.03611 21.9121C2.35451 21.9121 2.65987 21.7856 2.88501 21.5604L11.374 13.0714L19.863 21.5604C20.0882 21.7856 20.3935 21.9121 20.7119 21.9121C21.0303 21.9121 21.3357 21.7856 21.5608 21.5604C21.786 21.3353 21.9125 21.0299 21.9125 20.7115C21.9125 20.3931 21.786 20.0878 21.5608 19.8626Z" fill="#E31E24"/>
</svg>
