<svg width="47" height="47" viewBox="0 0 47 47" fill="none" xmlns="http://www.w3.org/2000/svg">
<g clip-path="url(#clip0_586_4)">
<path d="M46.7141 46.7141C46.5222 46.906 46.2715 47 46.0208 47C45.7702 47 45.5195 46.904 45.3276 46.7141L32.6983 34.0848C29.2222 37.2318 24.63 39.1686 19.5833 39.1686C8.78508 39.1667 0 30.3816 0 19.5833C0 8.78508 8.78508 0 19.5833 0C23.9837 0 28.1393 1.42567 31.6055 4.12229C32.0325 4.45325 32.1088 5.07012 31.7759 5.49704C31.443 5.92396 30.8281 6.00033 30.4012 5.66742C27.2855 3.24104 23.545 1.95833 19.5853 1.95833C9.86412 1.95833 1.95833 9.86608 1.95833 19.5833C1.95833 22.8224 2.85133 25.852 4.38471 28.4624L13.6202 17.5251C14.1274 16.9259 14.8677 16.5636 15.649 16.5303C16.4304 16.495 17.2 16.7947 17.7562 17.3508L21.81 21.4046C21.9803 21.573 22.2134 21.6513 22.4445 21.6533C22.6834 21.6455 22.9007 21.5397 23.0555 21.3615L41.3659 0.336833C41.7203 -0.0705 42.3372 -0.113583 42.7465 0.240875C43.1538 0.595333 43.1969 1.21417 42.8425 1.6215L24.536 22.6481C24.0287 23.2337 23.2905 23.5862 22.515 23.6116C21.7414 23.643 20.9777 23.3394 20.4274 22.7911L16.3736 18.7354C16.2013 18.563 15.9859 18.4769 15.7333 18.4867C15.4924 18.4965 15.275 18.6042 15.1183 18.7883L5.53817 30.176C8.75767 34.4353 13.8454 37.2064 19.5853 37.2064C29.3045 37.2064 37.2103 29.2986 37.2103 19.5814C37.2103 18.0049 37.0047 16.4441 36.5954 14.9421C36.4544 14.4192 36.7618 13.8826 37.2847 13.7397C37.8154 13.5967 38.3442 13.9061 38.4852 14.427C38.9395 16.0955 39.1706 17.8287 39.1706 19.5794C39.1706 24.626 37.2338 29.2183 34.0867 32.6944L46.716 45.3237C47.0979 45.7055 47.0979 46.3263 46.716 46.7082L46.7141 46.7141Z" fill="#FF2F22"/>
</g>
<defs>
<clipPath id="clip0_586_4">
<rect width="47" height="47" fill="white"/>
</clipPath>
</defs>
</svg>
