<svg width="47" height="47" viewBox="0 0 47 47" fill="none" xmlns="http://www.w3.org/2000/svg">
<path d="M41.1249 27.4169C44.364 27.4169 46.9999 24.781 46.9999 21.5419C46.9999 18.3028 44.364 15.6669 41.1249 15.6669C38.0014 15.6669 35.4634 18.1246 35.2832 21.2051L28.8599 22.4721C28.3155 20.786 27.3422 19.3075 26.0438 18.1579L30.8907 11.2235C31.6251 11.5544 32.4339 11.7483 33.2916 11.7483C36.5307 11.7483 39.1666 9.11238 39.1666 5.87329C39.1666 2.63421 36.5307 -0.00170898 33.2916 -0.00170898C30.0525 -0.00170898 27.4166 2.63421 27.4166 5.87329C27.4166 7.55158 28.1334 9.05754 29.2653 10.1287L24.4536 17.0123C23.0143 16.178 21.3654 15.665 19.5833 15.665C17.8012 15.665 16.1542 16.178 14.7129 17.0123L9.90127 10.1287C11.0332 9.05754 11.7499 7.55158 11.7499 5.87329C11.7499 2.63421 9.11402 -0.00170898 5.87494 -0.00170898C2.63586 -0.00170898 -6.10352e-05 2.63617 -6.10352e-05 5.87525C-6.10352e-05 9.11433 2.63586 11.7502 5.87494 11.7502C6.73073 11.7502 7.53952 11.5564 8.27586 11.2254L13.1227 18.1599C11.0978 19.9557 9.79161 22.5465 9.79161 25.4586C9.79161 28.0201 10.8021 30.3368 12.4177 32.0836L8.88881 36.11C8.00365 35.5773 6.97944 35.2503 5.87494 35.2503C2.63586 35.2503 -6.10352e-05 37.8862 -6.10352e-05 41.1253C-6.10352e-05 44.3643 2.63586 47.0003 5.87494 47.0003C9.11402 47.0003 11.7499 44.3643 11.7499 41.1253C11.7499 39.6996 11.2192 38.409 10.3713 37.3887L13.8806 33.384C15.4904 34.5453 17.4506 35.2503 19.5813 35.2503C22.0958 35.2503 24.3694 34.2691 26.1065 32.7064L32.2047 38.0859C31.6623 38.975 31.3313 40.009 31.3313 41.1272C31.3313 44.3663 33.9672 47.0022 37.2063 47.0022C40.4454 47.0022 43.0813 44.3663 43.0813 41.1272C43.0813 37.8881 40.4454 35.2522 37.2063 35.2522C35.7904 35.2522 34.5097 35.7751 33.4933 36.6113L27.4264 31.2592C28.6327 29.6318 29.373 27.6363 29.373 25.4586C29.373 25.0924 29.3044 24.7458 29.2653 24.3893L35.5026 23.1595C36.2095 25.6094 38.4479 27.4189 41.123 27.4189L41.1249 27.4169ZM33.2916 1.95858C35.4516 1.95858 37.2083 3.71521 37.2083 5.87525C37.2083 8.03529 35.4516 9.79192 33.2916 9.79192C31.1316 9.79192 29.3749 8.03529 29.3749 5.87525C29.3749 3.71521 31.1316 1.95858 33.2916 1.95858ZM1.95827 5.87525C1.95827 3.71521 3.7149 1.95858 5.87494 1.95858C8.03498 1.95858 9.79161 3.71521 9.79161 5.87525C9.79161 8.03529 8.03498 9.79192 5.87494 9.79192C3.7149 9.79192 1.95827 8.03529 1.95827 5.87525ZM5.87494 45.0419C3.7149 45.0419 1.95827 43.2853 1.95827 41.1253C1.95827 38.9652 3.7149 37.2086 5.87494 37.2086C8.03498 37.2086 9.79161 38.9652 9.79161 41.1253C9.79161 43.2853 8.03498 45.0419 5.87494 45.0419ZM19.5833 33.2919C15.2632 33.2919 11.7499 29.7787 11.7499 25.4586C11.7499 21.1385 15.2632 17.6253 19.5833 17.6253C23.9034 17.6253 27.4166 21.1385 27.4166 25.4586C27.4166 29.7787 23.9034 33.2919 19.5833 33.2919ZM37.2083 37.2086C39.3683 37.2086 41.1249 38.9652 41.1249 41.1253C41.1249 43.2853 39.3683 45.0419 37.2083 45.0419C35.0482 45.0419 33.2916 43.2853 33.2916 41.1253C33.2916 38.9652 35.0482 37.2086 37.2083 37.2086ZM41.1249 17.6253C43.285 17.6253 45.0416 19.3819 45.0416 21.5419C45.0416 23.702 43.285 25.4586 41.1249 25.4586C38.9649 25.4586 37.2083 23.702 37.2083 21.5419C37.2083 19.3819 38.9649 17.6253 41.1249 17.6253Z" fill="#FF2F22"/>
</svg>
