<svg width="47" height="47" viewBox="0 0 47 47" fill="none" xmlns="http://www.w3.org/2000/svg">
<g clip-path="url(#clip0_586_2)">
<path d="M34.2708 21.618C27.2522 21.618 21.5417 27.3285 21.5417 34.3472C21.5417 41.3247 27.2522 47 34.2708 47C41.2895 47 47 41.2895 47 34.2708C47 27.2933 41.2895 21.618 34.2708 21.618ZM34.2708 45.0417C28.3332 45.0417 23.5 40.2437 23.5 34.3472C23.5 28.4076 28.3332 23.5764 34.2708 23.5764C40.2085 23.5764 45.0417 28.3743 45.0417 34.2708C45.0417 40.2105 40.2085 45.0417 34.2708 45.0417ZM36.9224 35.5359C37.3043 35.9178 37.3043 36.5386 36.9224 36.9205C36.7305 37.1124 36.4798 37.2064 36.2292 37.2064C35.9785 37.2064 35.7278 37.1104 35.5359 36.9205L33.5776 34.9621C33.3935 34.778 33.2917 34.5293 33.2917 34.2689V30.3522C33.2917 29.8117 33.7303 29.373 34.2708 29.373C34.8113 29.373 35.25 29.8117 35.25 30.3522V33.8635L36.9224 35.5359ZM38.1875 3.91667H35.25V0.979167C35.25 0.438667 34.8113 0 34.2708 0C33.7303 0 33.2917 0.438667 33.2917 0.979167V3.91667H13.7083V0.979167C13.7083 0.438667 13.2697 0 12.7292 0C12.1887 0 11.75 0.438667 11.75 0.979167V3.91667H8.8125C3.95388 3.91667 0 7.87054 0 12.7292V38.1875C0 43.0461 3.95388 47 8.8125 47H20.5625C21.103 47 21.5417 46.5613 21.5417 46.0208C21.5417 45.4803 21.103 45.0417 20.5625 45.0417H8.8125C5.03292 45.0417 1.95833 41.9671 1.95833 38.1875V17.625H45.0417V20.5625C45.0417 21.103 45.4803 21.5417 46.0208 21.5417C46.5613 21.5417 47 21.103 47 20.5625V12.7292C47 7.87054 43.0461 3.91667 38.1875 3.91667ZM1.95833 15.6667V12.7292C1.95833 8.94958 5.03292 5.875 8.8125 5.875H38.1875C41.9671 5.875 45.0417 8.94958 45.0417 12.7292V15.6667H1.95833Z" fill="#FF2F22"/>
</g>
<defs>
<clipPath id="clip0_586_2">
<rect width="47" height="47" fill="white"/>
</clipPath>
</defs>
</svg>
