<svg width="92" height="19" viewBox="0 0 92 19" fill="none" xmlns="http://www.w3.org/2000/svg">
<path d="M6.47581 12.1662C6.39031 12.4922 6.34774 12.784 6.34774 13.0413C6.34774 14.002 6.9543 14.4824 8.1678 14.4824H21.2414L20.075 18.8574H7.00137C2.67762 18.8574 0.515747 17.369 0.515747 14.3922C0.515747 13.7233 0.622619 12.9812 0.836182 12.1662L3.98918 0.328003H9.62899L6.47581 12.1662ZM29.7624 11.7802L29.66 12.1662C29.5745 12.4922 29.5317 12.784 29.5317 13.0413C29.5317 14.002 30.1385 14.4824 31.3518 14.4824H44.4256L43.2592 18.8574H30.1854C25.8616 18.8574 23.6997 17.369 23.6997 14.3922C23.6997 13.7233 23.8066 12.9812 24.0202 12.1662L25.3917 7.01918C26.5794 2.55838 29.8222 0.328003 35.1202 0.328003H48.1938L47.0403 4.70301H33.9537C32.4157 4.70301 31.4414 5.47505 31.0314 7.01918L30.9288 7.4052H46.3096L45.1434 11.7802H29.7624ZM50.4215 4.70301L51.5879 0.328003H67.2251C71.5488 0.328003 73.7107 1.81636 73.7107 4.79308C73.7107 5.4622 73.6038 6.20422 73.3902 7.01918L71.6727 13.453C70.7157 17.056 67.5882 18.8574 62.2904 18.8574H46.6531L49.5371 8.04859H55.1767L53.4592 14.4824H63.4569C64.9949 14.4824 65.969 13.7103 66.3791 12.1662L67.7506 7.01918C67.8361 6.6932 67.8789 6.40153 67.8789 6.14417C67.8789 5.1834 67.2721 4.70301 66.0586 4.70301H50.4215ZM86.2563 0.328003H91.8959L88.7429 12.1662C87.5551 16.627 84.3123 18.8574 79.0145 18.8574H73.6312L74.7976 14.4824H80.1809C81.719 14.4824 82.6931 13.7103 83.1033 12.1662L86.2563 0.328003Z" fill="black"/>
</svg>
