<svg width="55" height="55" viewBox="0 0 55 55" fill="none" xmlns="http://www.w3.org/2000/svg">
<path d="M49.2703 43.5418C47.7853 43.5418 46.4423 44.1239 45.4225 45.0566L38.1442 39.7629L43.5434 36.6783V18.3243L38.1442 15.2397L45.4225 9.94598C46.4423 10.8764 47.7853 11.4608 49.2703 11.4608C52.4282 11.4608 54.9994 8.89182 54.9994 5.73161C54.9994 2.5714 52.4282 0.00244141 49.2703 0.00244141C46.1123 0.00244141 43.5411 2.5714 43.5411 5.73161C43.5411 6.57723 43.7359 7.37473 44.0682 8.0989L35.9625 13.9954L27.4994 9.15765L19.0363 13.9954L10.9307 8.0989C11.2607 7.37473 11.4578 6.57723 11.4578 5.73161C11.4578 2.5714 8.88651 0.00244141 5.72859 0.00244141C2.57067 0.00244141 -0.000576986 2.56911 -0.000576986 5.72932C-0.000576986 8.88953 2.57067 11.4585 5.72859 11.4585C7.21359 11.4585 8.55651 10.8764 9.5763 9.94369L16.8546 15.2374L11.4555 18.322V36.6737L16.8546 39.7583L9.57401 45.052C8.55421 44.1216 7.2113 43.5395 5.7263 43.5395C2.56838 43.5395 -0.00286865 46.1085 -0.00286865 49.2687C-0.00286865 52.4289 2.56838 54.9979 5.7263 54.9979C8.88421 54.9979 11.4555 52.4289 11.4555 49.2687C11.4555 48.4231 11.2607 47.6256 10.9284 46.9014L19.034 41.0072L27.4971 45.8449L35.9603 41.0072L44.0659 46.9037C43.7359 47.6279 43.5388 48.4254 43.5388 49.271C43.5388 52.4312 46.11 55.0002 49.268 55.0002C52.4259 55.0002 54.9971 52.4312 54.9971 49.271C54.9971 46.1108 52.4282 43.5418 49.2703 43.5418ZM49.2703 2.29182C51.1655 2.29182 52.7078 3.83411 52.7078 5.72932C52.7078 7.62453 51.1655 9.16682 49.2703 9.16682C47.375 9.16682 45.8328 7.62453 45.8328 5.72932C45.8328 3.83411 47.375 2.29182 49.2703 2.29182ZM5.72859 9.16682C3.83338 9.16682 2.29109 7.62453 2.29109 5.72932C2.29109 3.83411 3.83338 2.29182 5.72859 2.29182C7.6238 2.29182 9.16609 3.83411 9.16609 5.72932C9.16609 7.62453 7.6238 9.16682 5.72859 9.16682ZM5.72859 52.7085C3.83338 52.7085 2.29109 51.1662 2.29109 49.271C2.29109 47.3758 3.83338 45.8335 5.72859 45.8335C7.6238 45.8335 9.16609 47.3758 9.16609 49.271C9.16609 51.1662 7.6238 52.7085 5.72859 52.7085ZM28.6453 42.5495V27.7683L41.2494 20.5656V35.3468L28.6453 42.5495ZM39.7346 18.7895L27.4994 25.7837L15.2642 18.7895L27.4994 11.7976L39.7346 18.7895ZM13.7494 20.5656L26.3536 27.7683V42.5495L13.7494 35.3468V20.5656ZM49.2703 52.7108C47.375 52.7108 45.8328 51.1685 45.8328 49.2733C45.8328 47.3781 47.375 45.8358 49.2703 45.8358C51.1655 45.8358 52.7078 47.3781 52.7078 49.2733C52.7078 51.1685 51.1655 52.7108 49.2703 52.7108Z" fill="white" fill-opacity="0.8"/>
</svg>
