<svg width="56" height="55" viewBox="0 0 56 55" fill="none" xmlns="http://www.w3.org/2000/svg">
<path d="M12.1246 48.125H16.8569C16.4398 48.8354 16.1006 49.5963 15.8875 50.4167H12.1246C8.32727 50.4167 5.24956 47.339 5.24956 43.5417V38.9583H7.54123V43.5417C7.54123 46.074 9.59227 48.125 12.1246 48.125ZM12.1246 4.58333C8.32727 4.58333 5.24956 7.66104 5.24956 11.4583V14.4306C5.96915 14.1396 6.74602 13.97 7.54123 13.8669V11.4606C7.54123 8.92833 9.59227 6.87729 12.1246 6.87729H19.3319C19.1348 6.14167 18.9996 5.38312 18.9996 4.58563L12.1246 4.58333ZM48.7912 11.4583V13.8646C49.5864 13.9677 50.3633 14.1373 51.0829 14.4283V11.456C51.0829 7.65875 48.0052 4.58104 44.2079 4.58104H37.3329C37.3329 5.37854 37.1977 6.13708 37.0006 6.87271H44.2079C46.7402 6.87271 48.7912 8.92604 48.7912 11.4583ZM48.7912 43.5417C48.7912 46.074 46.7402 48.125 44.2079 48.125H39.4756C39.8927 48.8354 40.2319 49.5963 40.445 50.4167H44.2079C48.0052 50.4167 51.0829 47.339 51.0829 43.5417V38.9583H48.7912V43.5417ZM23.5829 4.58333C23.5829 2.05562 25.6385 0 28.1662 0C30.6939 0 32.7496 2.05562 32.7496 4.58333C32.7496 7.11104 30.6939 9.16667 28.1662 9.16667C25.6385 9.16667 23.5829 7.11104 23.5829 4.58333ZM25.8746 4.58333C25.8746 5.84833 26.9035 6.875 28.1662 6.875C29.4289 6.875 30.4579 5.84833 30.4579 4.58333C30.4579 3.31833 29.4289 2.29167 28.1662 2.29167C26.9035 2.29167 25.8746 3.31833 25.8746 4.58333ZM31.6037 11.4583H24.7287C22.201 11.4583 20.1454 13.514 20.1454 16.0417V18.3333H22.4371V16.0417C22.4371 14.7767 23.466 13.75 24.7287 13.75H31.6037C32.8664 13.75 33.8954 14.7767 33.8954 16.0417V18.3333H36.1871V16.0417C36.1871 13.514 34.1314 11.4583 31.6037 11.4583ZM23.5829 41.25C23.5829 38.7223 25.6385 36.6667 28.1662 36.6667C30.6939 36.6667 32.7496 38.7223 32.7496 41.25C32.7496 43.7777 30.6939 45.8333 28.1662 45.8333C25.6385 45.8333 23.5829 43.7777 23.5829 41.25ZM25.8746 41.25C25.8746 42.515 26.9035 43.5417 28.1662 43.5417C29.4289 43.5417 30.4579 42.515 30.4579 41.25C30.4579 39.985 29.4289 38.9583 28.1662 38.9583C26.9035 38.9583 25.8746 39.985 25.8746 41.25ZM31.6037 48.125H24.7287C22.201 48.125 20.1454 50.1806 20.1454 52.7083V55H22.4371V52.7083C22.4371 51.4433 23.466 50.4167 24.7287 50.4167H31.6037C32.8664 50.4167 33.8954 51.4433 33.8954 52.7083V55H36.1871V52.7083C36.1871 50.1806 34.1314 48.125 31.6037 48.125ZM51.0829 29.7917H44.2079C41.6802 29.7917 39.6246 31.8473 39.6246 34.375V36.6667H41.9162V34.375C41.9162 33.11 42.9452 32.0833 44.2079 32.0833H51.0829C52.3456 32.0833 53.3746 33.11 53.3746 34.375V36.6667H55.6662V34.375C55.6662 31.8473 53.6106 29.7917 51.0829 29.7917ZM12.1246 32.0833C13.3873 32.0833 14.4162 33.11 14.4162 34.375V36.6667H16.7079V34.375C16.7079 31.8473 14.6523 29.7917 12.1246 29.7917H5.24956C2.72185 29.7917 0.666229 31.8473 0.666229 34.375V36.6667H2.9579V34.375C2.9579 33.11 3.98685 32.0833 5.24956 32.0833H12.1246ZM52.2287 22.9167C52.2287 25.4444 50.1731 27.5 47.6454 27.5C45.1177 27.5 43.0621 25.4444 43.0621 22.9167C43.0621 20.389 45.1177 18.3333 47.6454 18.3333C50.1731 18.3333 52.2287 20.389 52.2287 22.9167ZM49.9371 22.9167C49.9371 21.6517 48.9081 20.625 47.6454 20.625C46.3827 20.625 45.3537 21.6517 45.3537 22.9167C45.3537 24.1817 46.3827 25.2083 47.6454 25.2083C48.9081 25.2083 49.9371 24.1817 49.9371 22.9167ZM4.10373 22.9167C4.10373 20.389 6.15935 18.3333 8.68706 18.3333C11.2148 18.3333 13.2704 20.389 13.2704 22.9167C13.2704 25.4444 11.2148 27.5 8.68706 27.5C6.15935 27.5 4.10373 25.4444 4.10373 22.9167ZM6.3954 22.9167C6.3954 24.1817 7.42435 25.2083 8.68706 25.2083C9.94977 25.2083 10.9787 24.1817 10.9787 22.9167C10.9787 21.6517 9.94977 20.625 8.68706 20.625C7.42435 20.625 6.3954 21.6517 6.3954 22.9167Z" fill="white" fill-opacity="0.8"/>
</svg>
