<svg width="56" height="55" viewBox="0 0 56 55" fill="none" xmlns="http://www.w3.org/2000/svg">
<path d="M39.2912 0C30.2964 0 23.2496 4.02646 23.2496 9.16667V19.1996C21.1733 18.6496 18.8518 18.3333 16.3746 18.3333C7.37976 18.3333 0.332886 22.3598 0.332886 27.5V45.8333C0.332886 50.9735 7.37976 55 16.3746 55C25.3693 55 32.4162 50.9735 32.4162 45.8333V44.951C34.5543 45.5194 36.8964 45.8333 39.2912 45.8333C48.286 45.8333 55.3329 41.8069 55.3329 36.6667V9.16667C55.3329 4.02646 48.286 0 39.2912 0ZM39.2912 2.29167C46.7437 2.29167 53.0412 5.44042 53.0412 9.16667C53.0412 12.8929 46.7437 16.0417 39.2912 16.0417C31.8387 16.0417 25.5412 12.8929 25.5412 9.16667C25.5412 5.44042 31.8387 2.29167 39.2912 2.29167ZM16.3746 20.625C23.8271 20.625 30.1246 23.7738 30.1246 27.5C30.1246 31.2263 23.8271 34.375 16.3746 34.375C8.92205 34.375 2.62455 31.2263 2.62455 27.5C2.62455 23.7738 8.92205 20.625 16.3746 20.625ZM2.62455 32.2667C5.40434 34.9204 10.4598 36.6667 16.3746 36.6667C22.2893 36.6667 27.3448 34.9204 30.1246 32.2667V36.6667C30.1246 40.3929 23.8271 43.5417 16.3746 43.5417C8.92205 43.5417 2.62455 40.3929 2.62455 36.6667V32.2667ZM16.3746 52.7083C8.92205 52.7083 2.62455 49.5596 2.62455 45.8333V41.4333C5.40434 44.0871 10.4598 45.8333 16.3746 45.8333C22.2893 45.8333 27.3448 44.0871 30.1246 41.4333V45.8333C30.1246 49.5596 23.8271 52.7083 16.3746 52.7083ZM39.2912 43.5417C36.8689 43.5417 34.5108 43.2002 32.4162 42.5746V35.7867C34.5521 36.355 36.8918 36.6644 39.2912 36.6644C45.206 36.6644 50.2614 34.9181 53.0412 32.2644V36.6644C53.0412 40.3906 46.7437 43.5417 39.2912 43.5417ZM39.2912 34.375C36.8598 34.375 34.5108 34.029 32.4162 33.4033V27.5C32.4162 27.1952 32.3887 26.895 32.3383 26.5994C34.4879 27.1815 36.8368 27.5 39.2912 27.5C45.206 27.5 50.2614 25.7537 53.0412 23.1V27.5C53.0412 31.2263 46.7437 34.375 39.2912 34.375ZM39.2912 25.2083C36.2914 25.2083 33.475 24.7042 31.0733 23.7783C29.8862 22.2131 27.9658 20.8885 25.5412 19.9375V13.9356C28.321 16.5894 33.3764 18.3356 39.2912 18.3356C45.206 18.3356 50.2614 16.5894 53.0412 13.9356V18.3356C53.0412 22.0619 46.7437 25.2106 39.2912 25.2106V25.2083Z" fill="white" fill-opacity="0.8"/>
</svg>
